<?xml  version="1.0" encoding="UTF-8"?>
<!DOCTYPE svg PUBLIC "-//W3C//DTD SVG 1.0//EN" "http://www.w3.org/TR/2001/REC-SVG-20010904/DTD/svg10.dtd" >
<svg xmlns="http://www.w3.org/2000/svg" >
<metadata>
<version>1.0</version>
<id><![CDATA[Fenice ITC W01 Light]]></id>
<vendor>Monotype Imaging Inc.</vendor>
<credits>
<name>Fonts.com WebFonts</name>
<URL>http://webfonts.fonts.com</URL>
<role>Home of the Web fonts</role>
</credits>
<license>
<URL>http://webfonts.fonts.com/Legal</URL>
</license>
<copyright><![CDATA[Font software Copyright 1990, 2001 Adobe Systems Incorporated. Typeface designs Copyright 2007 International Typeface Corporation. All rights reserved.]]></copyright>
<trademark><![CDATA["ITC is a trademark of International Typeface Corporation Registered in the U.S. Patent and Trademark Office and may be registered in certain jurisdictions; Fenice is a trademark of International Typeface Corporation and may be registered in certain jurisdictions."]]></trademark>
<licensee>
<name></name>
</licensee>
</metadata>
<defs >
<font horiz-adv-x="483" id="b27cc0f7-f2d5-4b11-a81a-fade5091d595">
<font-face font-family="" panose-1="2 7 4 6 7 5 6 2 2 4" ascent="945" descent="-250" units-per-em="1000" alphabetic="0">
</font-face>
<missing-glyph horiz-adv-x="0" />

<glyph unicode="&#xA;" />
<glyph unicode="&#xD;" horiz-adv-x="0" />
<glyph unicode=" " horiz-adv-x="259" />
<glyph unicode="!" horiz-adv-x="278" d="M129 207L108 532Q106 564 103 598T100 653Q100 682 108 695T139 708Q161 708 169 695T178 653Q178 632 175 598T170 532L149 207H129ZM91 34Q91 54 105 68T139 82Q159 82 173 68T187 34Q187 14 173 0T139 -14Q119 -14 105 0T91 34Z"  />
<glyph unicode="&quot;" horiz-adv-x="333" d="M92 708Q109 708 118 697T128 657Q128 645 128 634T125 599T120 535T111 423Q108 392 92 392Q76 392 73 423Q67 494 64 535T59 599T57 633T56 657Q56 685 65 696T92 708ZM241 708Q258 708 267 697T277 657Q277 645 277 634T274 599T269 535T260 423Q257 392 241 392Q225 392 222 423Q216 494 213 535T208 599T206 633T205 657Q205 685 214 696T241 708Z"  />
<glyph unicode="#" horiz-adv-x="519" d="M180 264H323L345 426H203L180 264ZM156 426H48V466H162L194 692H241L209 466H351L383 694H430L398 466H500V426H392L370 264H470V224H364L332 0H285L317 224H174L143 0H96L127 224H18V264H133L156 426Z"  />
<glyph unicode="$" horiz-adv-x="519" d="M290 32Q316 38 340 50T382 81T411 124T422 180Q422 213 411 235T381 274T339 302T290 329V32ZM258 4Q198 4 154 18T78 53V253H100Q114 175 125 131T153 65T193 37T258 30V341Q226 356 193 371T134 406T91 455T74 525Q74 561 88 590T128 642T186 676T258 692V770H290V692Q337 690 377 678T441 652V477H419Q404 540 394 576T370 632T339 659T290 670V402Q327 385 361 369T420 330T461 276T476 199Q476 161 461 129T420 71T360 28T290 6V-88H258V4ZM258 670Q194 661 161 629T128 546Q128 517 139 497T169 461T211 434T258 414V670Z"  />
<glyph unicode="%" horiz-adv-x="833" d="M635 6Q686 6 708 59T731 207Q731 301 709 354T635 408Q584 408 562 355T539 207Q539 113 561 60T635 6ZM221 -16H184L611 708H648L221 -16ZM198 284Q249 284 271 337T294 485Q294 579 272 632T198 686Q147 686 125 633T102 485Q102 391 124 338T198 284ZM635 -16Q597 -16 569 0T521 46T491 117T481 207Q481 256 491 297T520 367T568 413T635 430Q672 430 701 414T749 368T779 297T789 207Q789 158 779 117T750 47T701 1T635 -16ZM198 262Q160 262 132 278T84 324T54 395T44 485Q44 534 54 575T83 645T131 691T198 708Q235 708 264 692T312 646T342 575T352 485Q352 436 342 395T313 325T264 279T198 262Z"  />
<glyph unicode="&amp;" horiz-adv-x="611" d="M439 76Q424 58 404 42T359 12T307 -8T253 -16Q202 -16 162 -2T93 36T51 94T36 167Q36 211 51 244T90 303T146 351T212 394Q200 411 188 431T165 472T149 516T142 560Q142 586 151 612T180 660T230 694T302 708Q332 708 359 700T408 677T441 640T454 587Q454 554 436 528T392 480T335 443T280 413L461 154Q484 196 494 244T506 340H417V362H576V340H528Q523 286 513 233T478 132L554 22H604V0H490L439 76ZM225 376Q171 344 138 300T104 191Q104 157 116 126T149 70T199 32T264 18Q311 18 352 39T424 96L225 376ZM269 432Q291 444 312 458T350 490T376 530T386 581Q386 627 362 656T295 686Q270 686 253 678T224 655T207 623T202 586Q202 542 222 503T269 432Z"  />
<glyph unicode="&apos;" horiz-adv-x="222" d="M111 708Q128 708 137 697T147 657Q147 645 147 634T144 599T139 535T130 423Q127 392 111 392Q95 392 92 423Q86 494 83 535T78 599T76 633T75 657Q75 685 84 696T111 708Z"  />
<glyph unicode="(" horiz-adv-x="333" d="M263 -190Q215 -144 183 -94T130 12T101 129T92 259Q92 327 100 388T129 505T182 611T263 708L274 693Q236 651 213 602T177 497T160 382T156 259Q156 196 160 136T177 21T213 -83T274 -175L263 -190Z"  />
<glyph unicode=")" horiz-adv-x="333" d="M70 708Q118 662 150 612T203 506T232 389T241 259Q241 191 233 130T204 13T151 -93T70 -190L59 -175Q97 -133 120 -84T156 21T173 136T177 259Q177 322 173 382T156 497T120 601T59 693L70 708Z"  />
<glyph unicode="*" horiz-adv-x="519" d="M242 522Q201 539 173 548T126 564T100 578T91 598Q91 629 121 629Q131 629 139 624T161 608T194 578T249 534L251 537Q249 550 246 569T238 606T232 641T229 667Q229 692 236 700T259 708Q275 708 282 700T289 667Q289 658 287 642T280 607T273 569T267 537L269 534Q303 560 323 578T357 607T378 624T397 629Q427 629 427 598Q427 585 419 578T392 564T346 548T276 522V518Q322 501 351 491T397 473T420 458T427 440Q427 426 418 417T398 407Q388 407 379 411T357 426T323 456T269 507L267 504Q268 490 271 471T279 433T286 396T289 367Q289 332 259 332Q229 332 229 367Q229 378 232 395T239 432T246 471T251 504L249 507Q216 476 196 457T162 426T139 411T120 407Q109 407 100 416T91 440Q91 451 97 458T121 472T167 490T242 518V522Z"  />
<glyph unicode="+" horiz-adv-x="600" d="M274 508H326V280H554V228H326V0H274V228H46V280H274V508Z"  />
<glyph unicode="&#x2c;" horiz-adv-x="259" d="M89 -92Q109 -78 125 -59T147 -11Q139 -14 124 -14Q104 -14 92 -2T80 31Q80 53 93 67T126 82Q152 82 165 66T179 24Q179 -18 157 -53T98 -108L89 -92Z"  />
<glyph unicode="-" horiz-adv-x="333" d="M289 232H44V276H289V232Z"  />
<glyph unicode="." horiz-adv-x="259" d="M81 34Q81 54 95 68T129 82Q149 82 163 68T177 34Q177 14 163 0T129 -14Q109 -14 95 0T81 34Z"  />
<glyph unicode="/" horiz-adv-x="278" d="M314 708L-26 -116H-76L264 708H314Z"  />
<glyph unicode="0" horiz-adv-x="519" d="M259 686Q222 686 196 662T153 594T129 487T121 346Q121 268 128 206T152 99T195 30T259 6Q296 6 322 30T365 98T389 205T397 346Q397 424 390 486T366 593T323 662T259 686ZM259 708Q311 708 350 683T416 610T455 495T469 346Q469 263 456 197T416 83T351 10T259 -16Q207 -16 168 9T102 82T63 196T49 346Q49 428 62 495T102 609T167 682T259 708Z"  />
<glyph unicode="1" horiz-adv-x="519" d="M116 535Q159 577 202 617T280 708H316V22H366V0H178V22H248V627L128 516L116 535Z"  />
<glyph unicode="2" horiz-adv-x="519" d="M74 0V58Q164 137 223 204T317 328T366 433T380 522Q380 597 346 641T240 686Q204 686 185 671T156 627T139 558T124 466H102V669Q137 687 174 697T252 708Q295 708 331 695T395 656T437 595T452 516Q452 474 438 433T386 341T283 222T114 60H424V171H446V0H74Z"  />
<glyph unicode="3" horiz-adv-x="519" d="M84 233H106Q121 163 133 119T160 50T197 16T251 6Q290 6 318 22T363 63T389 120T398 184Q398 232 384 263T344 313T283 339T206 348V370Q245 370 277 376T339 411Q363 434 371 463T380 531Q380 563 372 591T348 640T307 673T249 686Q220 686 201 677T168 645T144 581T124 477H102V672Q135 686 171 697T246 708Q284 708 321 699T387 669T434 615T452 535Q452 500 441 473T411 425T367 388T312 361Q390 341 430 296T470 175Q470 136 455 102T410 41T340 -1T248 -16Q198 -16 157 -3T84 41V233Z"  />
<glyph unicode="4" horiz-adv-x="519" d="M56 262L357 698H396V250H472V218H396V22H442V0H256V22H328V218H56V262ZM328 604L78 250H328V604Z"  />
<glyph unicode="5" horiz-adv-x="519" d="M424 692V632H132V380Q162 423 194 440T267 458Q310 458 347 442T410 395T451 324T466 233Q466 179 449 134T400 55T325 3T230 -16Q183 -16 151 2T94 44V215H116Q131 149 141 109T164 45T195 14T245 6Q276 6 303 18T350 56T382 125T394 230Q394 332 361 384T261 436Q235 436 215 428T180 406T152 373T130 332H110V692H424Z"  />
<glyph unicode="6" horiz-adv-x="519" d="M417 497H395Q375 555 365 591T346 649T323 678T283 686Q213 686 173 598T128 322Q141 376 178 409T276 442Q322 442 357 425T415 379T451 311T463 226Q463 186 450 144T411 66T350 7T267 -16Q216 -16 177 9T110 78T69 184T55 319Q55 406 71 477T118 600T192 679T290 708Q325 708 355 699T417 677V497ZM391 218Q391 312 360 366T260 420Q208 420 173 371T137 230Q137 184 145 143T170 72T213 24T277 6Q311 6 333 24T368 72T386 140T391 218Z"  />
<glyph unicode="7" horiz-adv-x="519" d="M100 506V692H487Q432 587 394 500T331 333T297 179T286 22H336V0H153V22H208Q211 107 223 176T260 313T327 457T431 632H122V506H100Z"  />
<glyph unicode="8" horiz-adv-x="519" d="M201 365Q146 381 111 423T75 534Q75 571 87 603T123 658T181 695T259 708Q302 708 336 695T394 659T430 603T443 534Q443 466 409 425T318 365Q385 354 426 309T467 195Q467 151 455 113T416 46T351 1T259 -16Q206 -16 167 0T102 45T64 112T51 195Q51 264 92 309T201 365ZM259 6Q295 6 321 19T363 55T387 112T395 184Q395 220 387 251T361 307T319 344T259 358Q225 358 200 345T157 307T132 252T123 184Q123 145 130 112T154 56T197 19T259 6ZM259 380Q289 380 310 393T345 427T365 476T371 533Q371 562 365 589T346 638T311 673T259 686Q229 686 208 673T173 639T153 590T147 533Q147 504 153 477T172 428T207 393T259 380Z"  />
<glyph unicode="9" horiz-adv-x="519" d="M109 219H131Q140 184 147 147T167 78T198 26T251 6Q323 6 358 96T399 382Q390 357 377 336T345 298T300 272T242 262Q152 262 108 320T63 480Q63 525 77 566T116 638T178 689T258 708Q311 708 351 683T417 614T457 508T471 373Q471 286 456 215T413 92T343 13T247 -16Q203 -16 171 -4T109 31V219ZM135 474Q135 380 165 332T248 284Q314 284 351 336T389 500Q389 537 381 571T357 630T317 671T260 686Q226 686 203 668T164 620T142 552T135 474Z"  />
<glyph unicode=":" horiz-adv-x="259" d="M81 34Q81 54 95 68T129 82Q149 82 163 68T177 34Q177 14 163 0T129 -14Q109 -14 95 0T81 34ZM81 360Q81 380 95 394T129 408Q149 408 163 394T177 360Q177 340 163 326T129 312Q109 312 95 326T81 360Z"  />
<glyph unicode=";" horiz-adv-x="259" d="M89 -92Q109 -78 125 -59T147 -11Q141 -13 137 -13Q133 -14 124 -14Q104 -14 92 -2T80 31Q80 53 93 67T126 82Q152 82 165 66T179 24Q179 -18 157 -53T98 -108L89 -92ZM81 360Q81 380 95 394T129 408Q149 408 163 394T177 360Q177 340 163 326T129 312Q109 312 95 326T81 360Z"  />
<glyph unicode="&lt;" horiz-adv-x="600" d="M554 -7L46 223V285L554 515V459L94 254L554 49V-7Z"  />
<glyph unicode="=" horiz-adv-x="600" d="M554 328H46V380H554V328ZM554 128H46V180H554V128Z"  />
<glyph unicode="&gt;" horiz-adv-x="600" d="M46 49L506 254L46 459V515L554 285V223L46 -7V49Z"  />
<glyph unicode="?" horiz-adv-x="389" d="M182 213Q182 243 184 262T194 300T215 340T250 396Q264 418 273 435T288 468T296 503T298 548Q298 584 289 610T264 653T230 678T191 686Q164 686 147 677T118 644T95 576T68 466H46V662Q67 674 85 682T120 696T156 705T196 708Q236 708 268 694T323 654T358 597T370 531Q370 496 361 470T336 422T302 381T265 341Q242 316 230 302T212 275T205 250T204 213H182ZM147 34Q147 54 161 68T195 82Q215 82 229 68T243 34Q243 14 229 0T195 -14Q175 -14 161 0T147 34Z"  />
<glyph unicode="@" horiz-adv-x="800" d="M516 418Q516 456 503 475T466 494Q442 494 416 476T368 428T332 360T318 283Q318 231 338 210T392 188Q408 188 429 202T470 245T503 317T516 418ZM542 516H610L542 258Q538 242 538 228Q538 220 540 212T547 196T561 183T585 178Q617 178 643 198T688 251T717 323T728 398Q728 443 708 492T648 584T552 653T419 680Q354 680 298 657T201 589T136 479T112 328Q112 264 136 208T202 109T302 43T429 18Q464 18 492 22T545 33T592 49T637 69L650 44Q599 21 546 3T430 -16Q327 -16 253 16T130 98T59 210T36 330Q36 415 64 484T143 603T264 680T419 708Q494 708 557 684T666 618T738 520T764 399Q764 359 751 315T714 233T653 172T569 148Q543 148 525 158T495 180T479 203T473 217Q468 208 457 197T429 175T393 157T352 150Q330 150 312 159T280 186T258 227T250 280Q250 324 266 369T311 450T377 509T458 532Q477 532 489 527T510 513T524 495T532 478L542 516Z"  />
<glyph unicode="A" horiz-adv-x="556" d="M0 0V22H47L255 700H291L501 22H544V0H370V22H432L355 274H153L76 22H153V0H0ZM160 296H349L254 604L160 296Z"  />
<glyph unicode="B" horiz-adv-x="593" d="M112 670H60V692H239Q305 692 352 679T431 642T477 588T492 523Q492 455 446 418T314 367Q354 363 393 353T464 321T514 267T533 185Q533 100 460 50T250 0H60V22H112V670ZM184 22H253Q352 22 406 63T461 193Q461 276 405 313T248 350H184V22ZM184 372H211Q322 372 371 414T420 522Q420 598 374 634T231 670H184V372Z"  />
<glyph unicode="C" horiz-adv-x="556" d="M490 39Q477 28 457 19T415 1T369 -11T328 -16Q265 -16 215 11T131 87T78 199T60 338Q60 414 81 481T140 599T232 679T348 708Q368 708 388 705T425 695T457 682T480 668V477H458Q444 538 435 578T413 643T385 676T342 686Q292 686 253 660T187 588T146 477T132 338Q132 253 147 191T190 87T252 26T326 6Q363 6 383 15T416 51T439 124T468 243H490V39Z"  />
<glyph unicode="D" horiz-adv-x="630" d="M60 692H235Q311 692 372 673T478 613T546 505T570 346Q570 253 546 187T478 80T373 19T235 0H60V22H112V670H60V692ZM184 22H233Q372 22 435 102T498 346Q498 509 435 589T233 670H184V22Z"  />
<glyph unicode="E" horiz-adv-x="578" d="M60 0V22H112V670H60V692H508V477H486Q471 534 462 571T445 631T427 661T400 670H184V372H268Q300 372 317 401T342 508H364V214H342Q334 292 317 321T268 350H184V22H392Q422 22 438 33T464 72T481 143T501 252H523V0H60Z"  />
<glyph unicode="F" horiz-adv-x="556" d="M254 0H60V22H112V670H60V692H508V477H486Q471 534 462 571T445 631T427 661T400 670H184V372H268Q300 372 317 401T342 508H364V214H342Q334 292 317 321T268 350H184V22H254V0Z"  />
<glyph unicode="G" horiz-adv-x="611" d="M510 49Q475 20 431 2T336 -16Q274 -16 223 10T136 82T80 194T60 338Q60 417 81 485T140 602T232 680T348 708Q393 708 425 697T492 666V477H470Q455 542 445 582T422 646T392 677T344 686Q293 686 254 660T187 588T146 477T132 338Q132 252 148 189T191 86T256 26T337 6Q373 6 399 18T446 51V280H358V302H551V280H510V49Z"  />
<glyph unicode="H" horiz-adv-x="648" d="M184 350V22H236V0H60V22H112V670H60V692H236V670H184V372H464V670H412V692H588V670H536V22H588V0H412V22H464V350H184Z"  />
<glyph unicode="I" horiz-adv-x="296" d="M236 0H60V22H112V670H60V692H236V670H184V22H236V0Z"  />
<glyph unicode="J" horiz-adv-x="463" d="M82 252Q104 130 127 68T197 6Q241 6 260 30T279 109V670H203V692H403V670H351V155Q351 113 344 85T310 27Q269 -16 187 -16Q156 -16 120 -4T60 25V252H82Z"  />
<glyph unicode="K" horiz-adv-x="556" d="M396 670V692H558V670H504L242 392L538 22H576V0H474L186 367L476 670H396ZM244 0H60V22H112V670H60V692H244V670H184V22H244V0Z"  />
<glyph unicode="L" horiz-adv-x="537" d="M184 22H355Q385 22 400 30T424 64T441 134T464 252H486V0H60V22H112V670H60V692H258V670H184V22Z"  />
<glyph unicode="M" horiz-adv-x="778" d="M210 0H62V22H114V670H62V692H201L389 99L582 692H716V670H664V22H716V0H518V22H592V652L383 0H354L142 662V22H210V0Z"  />
<glyph unicode="N" horiz-adv-x="611" d="M134 22H200V0H54V22H106V670H54V692H190L476 135V670H400V692H556V670H504V0H469L134 663V22Z"  />
<glyph unicode="O" horiz-adv-x="630" d="M132 346Q132 178 177 92T315 6Q408 6 453 92T498 346Q498 514 453 600T315 686Q222 686 177 600T132 346ZM60 346Q60 430 78 497T130 611T211 683T315 708Q372 708 419 683T499 611T551 497T570 346Q570 262 552 195T500 81T419 9T315 -16Q258 -16 211 9T131 81T79 195T60 346Z"  />
<glyph unicode="P" horiz-adv-x="556" d="M60 0V22H112V670H60V692H300Q362 692 405 679T476 643T515 588T528 521Q528 474 514 441T468 386T387 354T268 344H184V22H256V0H60ZM184 366H279Q370 366 413 402T456 515Q456 586 417 628T290 670H184V366Z"  />
<glyph unicode="Q" horiz-adv-x="630" d="M132 346Q132 178 177 92T315 6Q408 6 453 92T498 346Q498 514 453 600T315 686Q222 686 177 600T132 346ZM405 -148H366Q322 -148 302 -127T282 -71V-16Q232 -9 191 19T121 94T76 204T60 346Q60 430 78 497T130 611T211 683T315 708Q372 708 419 683T499 611T551 497T570 346Q570 268 554 205T509 95T438 20T346 -16V-73Q346 -102 358 -114T394 -126H405V-148Z"  />
<glyph unicode="R" horiz-adv-x="556" d="M228 0H52V22H104V670H52V692H295Q400 692 451 646T502 526Q502 485 484 454T434 402T362 371T274 360H264L513 22H560V0H443L179 376H213Q276 376 318 387T384 419T419 467T430 526Q430 594 393 632T279 670H176V22H228V0Z"  />
<glyph unicode="S" horiz-adv-x="519" d="M403 476L371 593Q363 620 354 638T332 666T300 681T256 686Q194 686 154 652T113 552Q113 525 120 506T145 471T193 439T268 402Q326 374 363 353T421 308T451 257T459 189Q459 147 444 110T400 45T329 1T233 -16Q188 -16 145 -2T67 45V257H89Q107 191 118 144T143 66T177 21T234 6Q271 6 301 19T354 55T387 111T399 181Q399 214 391 235T363 274T312 306T237 343Q194 363 161 381T106 420T71 467T59 528Q59 559 69 591T102 649T164 691T260 708Q313 708 352 697T425 668V476H403Z"  />
<glyph unicode="T" horiz-adv-x="481" d="M204 670H140Q120 670 108 661T88 629T73 570T54 477H32V692H448V477H426Q417 532 410 569T394 629T373 660T340 670H276V22H338V0H142V22H204V670Z"  />
<glyph unicode="U" horiz-adv-x="611" d="M103 670H51V692H241V670H175V162Q175 132 182 105T206 58T249 26T314 14Q393 14 436 60T479 213V670H401V692H559V670H507V216Q507 99 458 42T301 -16Q259 -16 223 -5T161 28T119 85T103 164V670Z"  />
<glyph unicode="V" horiz-adv-x="500" d="M180 670H115L272 93L428 670H365V692H495V670H455L274 0H231L49 670H5V692H180V670Z"  />
<glyph unicode="W" horiz-adv-x="778" d="M12 692H188V670H117L266 92L377 505L335 670H274V692H482V670H400L551 87L709 670H654V692H776V670H736L552 0H508L389 458L264 0H225L52 670H12V692Z"  />
<glyph unicode="X" horiz-adv-x="500" d="M144 0H-8V22H39L218 362L71 670H26V692H208V670H142L262 419L399 670H322V692H478V670H427L275 394L457 22H508V0H322V22H383L230 336L65 22H144V0Z"  />
<glyph unicode="Y" horiz-adv-x="500" d="M214 316L51 670H2V692H204V670H123L269 343L431 670H362V692H498V670H461L286 316V22H338V0H162V22H214V316Z"  />
<glyph unicode="Z" horiz-adv-x="500" d="M118 22H339Q360 22 371 31T391 66T409 137T436 252H458V0H39L380 670H184Q161 670 148 661T125 630T107 570T86 478H64V692H461L118 22Z"  />
<glyph unicode="[" horiz-adv-x="333" d="M269 -174H113V692H273V670H171V-152H269V-174Z"  />
<glyph unicode="\" horiz-adv-x="278" d="M15 708L355 -116H305L-35 708H15Z"  />
<glyph unicode="]" horiz-adv-x="333" d="M64 -174V-152H162V670H60V692H220V-174H64Z"  />
<glyph unicode="^" horiz-adv-x="600" d="M90 327L270 692H330L510 327H461L300 652L139 327H90Z"  />
<glyph unicode="_" horiz-adv-x="500" d="M0 -125V-75H500V-125H0Z"  />
<glyph unicode="`" horiz-adv-x="259" d="M30 663Q17 672 8 682T-2 706Q-2 718 6 726T28 735Q41 735 51 728T84 697L202 569H166L30 663Z"  />
<glyph unicode="a" horiz-adv-x="481" d="M334 105Q317 50 279 17T181 -16Q152 -16 128 -7T85 20T57 62T46 116Q46 160 60 187T97 232T151 258T212 276T275 295T332 324V374Q332 401 327 424T309 465T277 492T228 502Q192 502 172 484T140 438T124 380T112 322H96V481Q115 494 150 509T226 524Q309 524 352 483T396 347V22H435V0H334V105ZM332 299Q298 274 259 261T185 234T129 196T106 128Q106 77 134 48T209 18Q239 18 261 33T300 76T324 141T332 224V299Z"  />
<glyph unicode="b" horiz-adv-x="488" d="M144 433Q163 475 192 499T264 524Q299 524 330 506T386 453T424 370T438 260Q438 196 424 145T384 58T323 3T247 -16Q209 -16 180 4T127 53L105 0H80V670H34V692H144V433ZM370 254Q370 323 361 370T337 447T301 489T259 502Q236 502 216 491T179 452T154 375T144 254Q144 195 148 149T165 71T198 23T253 6Q279 6 300 18T337 60T361 137T370 254Z"  />
<glyph unicode="c" horiz-adv-x="444" d="M364 311Q350 366 340 403T320 462T295 493T258 502Q225 502 199 484T155 434T128 357T118 256Q118 204 124 160T146 83T185 33T245 14Q284 14 310 33T350 79Q361 101 366 126T372 179H394Q394 149 389 121T371 68Q352 30 318 7T235 -16Q192 -16 158 4T100 60T63 145T50 255Q50 316 67 366T113 451T180 505T260 524Q294 524 324 515T380 494V311H364Z"  />
<glyph unicode="d" horiz-adv-x="484" d="M340 83Q334 66 325 49T301 17T267 -7T221 -16Q185 -16 154 3T100 58T63 141T50 246Q50 304 64 354T101 442T156 502T223 524Q270 524 297 498T340 428V670H294V692H404V22H438V0H340V83ZM118 254Q118 185 128 138T154 61T190 19T230 6Q284 6 312 70T340 254Q340 327 331 375T307 451T272 491T229 502Q207 502 187 490T152 448T127 371T118 254Z"  />
<glyph unicode="e" horiz-adv-x="463" d="M120 298Q119 285 119 273T119 252Q119 130 153 68T246 6Q288 6 316 25T362 74Q377 99 383 129T392 192H414Q414 160 408 128T384 65Q364 30 330 7T241 -16Q185 -16 149 8T90 72T59 159T50 254Q50 308 63 356T100 442T160 502T241 524Q274 524 304 513T356 477T391 416T404 327V298H120ZM336 320V332Q336 413 314 457T237 502Q205 502 183 484T148 438T128 378T122 320H336Z"  />
<glyph unicode="f" horiz-adv-x="278" d="M52 0V22H94V486H52V508H94V571Q94 640 125 674T210 708Q227 708 247 703T285 691V563H269Q256 600 248 624T234 662T220 681T200 686Q181 686 170 672T158 628V508H260V486H158V22H229V0H52Z"  />
<glyph unicode="g" horiz-adv-x="444" d="M414 486H346Q370 460 386 424T402 350Q402 311 390 280T357 226T307 191T242 178Q210 178 183 190T137 223Q111 218 90 199T68 149Q68 125 76 111T104 88T156 75T235 68Q293 65 329 57T387 36T416 2T424 -44Q424 -76 407 -102T363 -148T299 -179T223 -190Q180 -190 148 -181T95 -155T64 -118T54 -75Q54 -41 72 -20T119 19Q79 28 53 53T26 127Q26 171 51 199T120 241Q100 266 93 296T86 350Q86 388 97 420T130 475T180 511T244 524Q259 524 279 520T322 508H414V486ZM222 -168Q252 -168 280 -161T330 -140T365 -107T378 -64Q378 -34 364 -21T320 -2T249 4T150 12Q131 -5 116 -23T100 -70Q100 -95 110 -113T137 -144T176 -162T222 -168ZM338 351Q338 502 244 502Q150 502 150 351Q150 200 244 200Q338 200 338 351Z"  />
<glyph unicode="h" horiz-adv-x="500" d="M48 0V22H94V670H48V692H158V446Q164 458 175 471T200 496T233 516T273 524Q342 524 374 484T406 374V22H452V0H290V22H342V392Q342 446 321 470T262 494Q240 494 221 481T188 448T166 401T158 347V22H214V0H48Z"  />
<glyph unicode="i" horiz-adv-x="247" d="M94 486H48V508H158V22H206V0H48V22H94V486ZM79 635Q79 653 91 665T122 678Q140 678 152 666T165 635Q165 617 153 605T122 592Q104 592 92 604T79 635Z"  />
<glyph unicode="j" horiz-adv-x="259" d="M60 486V508H170V-80Q170 -131 146 -157T60 -190V-168Q89 -162 97 -149T106 -106V486H60ZM91 635Q91 653 103 665T134 678Q152 678 164 666T177 635Q177 617 165 605T134 592Q116 592 104 604T91 635Z"  />
<glyph unicode="k" horiz-adv-x="444" d="M416 508V486H382L220 298L416 22H454V0H361L166 275L348 486H272V508H416ZM94 670H48V692H158V22H218V0H60V22H94V670Z"  />
<glyph unicode="l" horiz-adv-x="247" d="M94 670H34V692H158V22H206V0H48V22H94V670Z"  />
<glyph unicode="m" horiz-adv-x="741" d="M646 22H692V0H530V22H582V386Q582 445 563 469T506 494Q484 494 465 481T432 448T410 401T402 347V22H454V0H286V22H338V386Q338 445 319 469T262 494Q240 494 221 481T188 448T166 401T158 347V22H214V0H48V22H94V486H48V508H158V446Q164 456 174 469T198 495T232 515T276 524Q302 524 322 517T357 498T382 472T397 443Q414 479 443 501T513 524Q582 524 614 484T646 374V22Z"  />
<glyph unicode="n" horiz-adv-x="500" d="M48 0V22H94V486H48V508H158V447Q175 479 203 501T273 524Q342 524 374 484T406 374V22H452V0H290V22H342V392Q342 446 321 470T262 494Q240 494 221 481T188 448T166 401T158 347V22H214V0H48Z"  />
<glyph unicode="o" horiz-adv-x="478" d="M239 524Q289 524 325 501T384 441T417 354T428 254Q428 203 418 154T384 68T325 7T239 -16Q189 -16 153 7T94 67T61 154T50 254Q50 305 60 354T94 440T153 501T239 524ZM239 502Q204 502 181 484T143 433T124 355T118 254Q118 199 123 154T143 75T180 24T239 6Q274 6 297 24T335 75T354 153T360 254Q360 309 355 354T335 433T298 484T239 502Z"  />
<glyph unicode="p" horiz-adv-x="497" d="M48 -174V-152H90V486H48V508H154V426Q165 468 196 496T269 524Q310 524 343 503T399 445T434 360T447 258Q447 193 431 143T390 57T332 3T265 -16Q219 -16 193 10T154 72V-152H194V-174H48ZM379 254Q379 323 370 370T345 447T309 489T267 502Q245 502 225 491T189 452T164 375T154 254Q154 135 179 71T266 6Q290 6 311 18T347 60T370 137T379 254Z"  />
<glyph unicode="q" horiz-adv-x="463" d="M340 266Q340 383 319 442T240 502Q208 502 185 483T147 429T125 347T118 244Q118 122 148 64T223 6Q284 6 312 70T340 266ZM340 88Q324 40 295 12T219 -16Q185 -16 155 1T101 51T64 135T50 254Q50 313 63 362T100 448T159 504T235 524Q273 524 300 507T351 458L375 508H404V-152H438V-174H290V-152H340V88Z"  />
<glyph unicode="r" horiz-adv-x="379" d="M238 0H50V22H94V486H50V508H156V434Q175 479 208 501T274 524Q292 524 310 519T342 508V319H326Q313 370 305 403T289 457T272 485T249 494Q233 494 217 482T188 448T167 400T158 343V22H238V0Z"  />
<glyph unicode="s" horiz-adv-x="406" d="M318 338L288 443Q283 460 278 471T263 489T239 499T204 502Q177 502 158 494T126 474T107 447T100 416Q100 390 119 371T168 335T231 301T294 262T342 212T362 146Q362 104 348 74T309 23T254 -6T189 -16Q156 -16 121 -3T62 34V200H78Q88 138 97 100T119 41T151 13T199 6Q222 6 243 13T281 35T306 71T316 118Q316 149 297 171T248 212T185 247T122 285T74 331T54 395Q54 416 62 439T89 480T138 511T214 524Q247 524 276 516T334 496V338H318Z"  />
<glyph unicode="t" horiz-adv-x="315" d="M50 486V508H94V611H158V508H254V486H158V81Q158 49 169 32T204 14Q235 14 249 33T264 106V190H286V108Q286 42 262 13T188 -16Q144 -16 119 11T94 99V486H50Z"  />
<glyph unicode="u" horiz-adv-x="500" d="M406 508V22H452V0H342V64Q336 52 325 38T298 12T262 -8T217 -16Q155 -16 125 20T94 135V486H48V508H158V127Q158 61 180 38T236 14Q260 14 279 26T313 61T334 112T342 177V486H286V508H406Z"  />
<glyph unicode="v" horiz-adv-x="444" d="M14 508H184V486H111L248 86L384 486H316V508H442V486H410L243 -4H216L48 486H14V508Z"  />
<glyph unicode="w" horiz-adv-x="667" d="M170 508V486H113L245 88L326 324L273 486H238V508H412V486H338L471 88L602 486H547V508H665V486H629L464 -4H438L339 288L240 -4H214L46 486H14V508H170Z"  />
<glyph unicode="x" horiz-adv-x="444" d="M16 0V22H52L201 259L68 486H30V508H194V486H135L235 314L344 486H288V508H408V486H371L250 292L412 22H448V0H278V22H340L214 235L81 22H154V0H16Z"  />
<glyph unicode="y" horiz-adv-x="444" d="M177 508V486H112L262 102L379 486H314V508H432V486H408L244 -51Q234 -83 223 -106T198 -144T165 -166T120 -174Q100 -174 83 -168T51 -150V0H67Q73 -22 79 -47T93 -93T111 -129T135 -144Q155 -144 169 -134T193 -105T213 -59T233 5L46 486H11V508H177Z"  />
<glyph unicode="z" horiz-adv-x="389" d="M60 340V508H365L106 22H256Q275 22 288 31T310 62T326 118T340 201H356V0H32L287 486H161Q138 486 124 476T101 446T87 400T76 340H60Z"  />
<glyph unicode="{" horiz-adv-x="333" d="M124 564Q124 610 133 638T161 682T205 703T263 708V686Q216 677 199 648T182 572V387Q182 360 179 338T168 300T145 273T105 255Q153 241 167 209T182 122V-54Q182 -101 199 -130T263 -168V-190Q231 -190 205 -185T161 -165T134 -121T124 -46V137Q124 186 108 212T46 252V256Q69 263 84 272T108 296T120 328T124 372V564Z"  />
<glyph unicode="|" horiz-adv-x="222" d="M85 -250V750H137V-250H85Z"  />
<glyph unicode="}" horiz-adv-x="333" d="M209 -46Q209 -92 200 -120T172 -164T128 -185T70 -190V-168Q117 -159 134 -130T151 -54V131Q151 186 166 217T228 263Q181 276 166 308T151 396V572Q151 618 134 647T70 686V708Q102 708 128 703T172 683T199 639T209 564V381Q209 356 212 338T225 305T249 282T287 266V262Q264 255 249 246T225 222T213 190T209 146V-46Z"  />
<glyph unicode="~" horiz-adv-x="600" d="M532 282Q521 266 509 251T482 223T449 204T407 196Q379 196 355 205T305 229Q281 243 253 253T190 264Q157 264 137 241T104 192L68 226Q77 242 88 257T115 285T150 304T195 312Q221 312 249 303T306 280Q334 268 361 256T408 244Q423 244 435 250T458 267T478 290T496 316L532 282Z"  />
<glyph unicode="&#xA0;" horiz-adv-x="259" />
<glyph unicode="&#xA1;" horiz-adv-x="278" d="M149 311L170 -14Q172 -46 175 -80T178 -135Q178 -164 170 -177T139 -190Q117 -190 109 -177T100 -135Q100 -114 103 -80T108 -14L129 311H149ZM187 484Q187 464 173 450T139 436Q119 436 105 450T91 484Q91 504 105 518T139 532Q159 532 173 518T187 484Z"  />
<glyph unicode="&#xA2;" horiz-adv-x="519" d="M231 587Q178 571 149 507T120 346Q120 297 126 255T145 182T179 130T231 106V587ZM259 614Q295 614 326 605T382 584V401H366Q352 456 342 493T322 552T297 583T259 592V106Q294 108 317 126T352 169Q363 191 368 216T374 269H396Q396 239 391 211T373 158Q356 125 327 103T259 75V-30H231V74Q189 75 156 95T100 152T65 237T52 345Q52 400 66 446T104 526T161 581T231 610V706H259V614Z"  />
<glyph unicode="&#xA3;" horiz-adv-x="519" d="M452 468H436Q419 527 408 568T382 636T347 674T289 686Q217 686 180 647T142 544Q142 516 149 487T168 427T192 368T213 312H384V290H220Q225 273 228 257T232 223Q232 195 222 172T195 128T159 91T120 60H448V197H470V0H74V63Q117 87 144 118T172 201Q172 225 167 246T153 290H49V312H142Q131 336 121 363T102 419T88 474T82 523Q82 611 137 659T288 708Q337 708 377 694T452 660V468Z"  />
<glyph unicode="&#xA4;" horiz-adv-x="519" d="M259 523Q223 523 192 509T137 471T101 415T88 346Q88 310 101 278T137 221T191 183T259 169Q295 169 326 183T381 221T417 277T430 346Q430 383 417 415T381 471T327 509T259 523ZM477 157L443 123L393 174Q373 157 338 142T259 127Q216 127 181 142T125 174L75 123L41 157L91 207Q40 267 40 346Q40 425 91 485L41 535L75 569L125 518Q145 535 180 550T259 565Q302 565 337 550T393 518L443 569L477 535L427 485Q478 425 478 346Q478 267 427 207L477 157Z"  />
<glyph unicode="&#xA5;" horiz-adv-x="519" d="M293 22H347V0H171V22H225V262H63V284H225V316L202 366H63V388H192L62 670H11V692H213V670H132L278 343L440 670H371V692H507V670H468L329 388H467V366H318L293 316V284H467V262H293V22Z"  />
<glyph unicode="&#xA6;" horiz-adv-x="222" d="M85 350V650H137V350H85ZM85 -150V150H137V-150H85Z"  />
<glyph unicode="&#xA7;" horiz-adv-x="519" d="M87 319Q87 292 101 272T147 230T226 184T342 124Q357 127 373 135T401 156T422 184T431 218Q431 246 413 267T360 311T275 358T162 419Q132 405 110 382T87 319ZM129 44Q135 17 140 -19T156 -87T189 -142T250 -164Q276 -164 300 -156T343 -131T373 -91T385 -38Q385 -3 360 23T296 73T214 119T132 167T69 223T43 295Q43 337 66 376T140 438Q109 458 96 484T83 543Q83 580 98 608T139 654T196 682T260 692Q301 692 333 684T405 659V486H383Q362 547 352 583T331 637T304 661T256 666Q234 666 213 660T176 640T149 608T139 564Q139 532 164 508T226 462T307 420T388 374T450 318T475 243Q475 189 445 157T369 106Q400 81 420 53T441 -25Q441 -61 425 -91T382 -143T318 -177T242 -190Q226 -190 207 -187T170 -178T135 -164T107 -145V44H129Z"  />
<glyph unicode="&#xA8;" horiz-adv-x="259" d="M-3 633Q-3 653 11 667T45 681Q65 681 79 667T93 633Q93 613 79 599T45 585Q25 585 11 599T-3 633ZM165 633Q165 653 179 667T213 681Q233 681 247 667T261 633Q261 613 247 599T213 585Q193 585 179 599T165 633Z"  />
<glyph unicode="&#xA9;" horiz-adv-x="800" d="M400 -16Q326 -16 262 12T149 89T74 204T46 345Q46 420 73 486T149 602T261 679T400 708Q474 708 538 680T651 602T726 487T754 345Q754 270 727 204T651 90T539 13T400 -16ZM400 670Q335 670 280 644T184 574T120 470T96 345Q96 280 119 221T184 118T280 48T400 22Q464 22 520 48T616 118T680 221T704 345Q704 411 681 470T617 573T521 644T400 670ZM575 258L560 187Q558 178 553 174T534 165Q518 160 488 153T421 146Q376 146 336 158T265 195T218 259T200 355Q200 388 213 423T254 489T325 538T428 558Q469 558 492 553T538 539Q560 531 560 516V443H538Q536 459 530 476T511 506T477 527T425 536Q386 536 358 523T312 486T285 430T276 359Q276 318 284 283T312 223T360 183T431 168Q483 168 513 195T558 258H575Z"  />
<glyph unicode="&#xAA;" horiz-adv-x="289" d="M206 453Q197 423 173 404T107 384Q68 384 43 406T17 464Q17 505 37 523T86 550T146 565T202 588V618Q202 649 189 670T137 692Q114 692 101 682T81 655T71 621T63 587H51V683Q64 691 87 699T136 708Q190 708 218 684T246 602V410H272V394H206V453ZM202 569Q181 554 157 547T111 532T75 511T61 471Q61 440 79 423T125 406Q163 406 182 440T202 528V569Z"  />
<glyph unicode="&#xAB;" horiz-adv-x="426" d="M217 100Q214 100 210 103T199 113T179 132T145 165Q117 190 99 207T71 233T56 247T51 254Q51 255 55 260T70 274T99 300T145 343Q166 362 178 375T198 395T210 405T217 408Q226 408 227 399Q227 393 215 374T185 331T151 287T124 254Q133 243 150 221T185 176T214 134T227 109Q226 100 217 100ZM365 100Q362 100 358 103T347 113T327 132T293 165Q265 190 247 207T219 233T204 247T199 254Q199 255 203 260T218 274T247 300T293 343Q314 362 326 375T346 395T358 405T365 408Q374 408 375 399Q375 393 363 374T333 332T299 287T272 254Q281 243 298 221T333 176T362 134T375 109Q374 100 365 100Z"  />
<glyph unicode="&#xAC;" horiz-adv-x="600" d="M502 328H46V380H554V128H502V328Z"  />
<glyph unicode="&#xAD;" horiz-adv-x="333" d="M289 225H44V283H289V225Z"  />
<glyph unicode="&#xAE;" horiz-adv-x="800" d="M231 549H417Q440 549 462 544T501 526T528 496T538 453Q538 412 514 384T454 343L514 260Q535 231 557 207T594 171V162H531Q518 162 506 174T480 209T448 263T404 330H346V229Q346 212 347 203T352 188T367 181T397 178V162H231V178Q250 179 260 181T275 188T281 202T282 229V482Q282 500 281 509T275 523T260 529T231 533V549ZM346 352H399Q441 352 457 379T474 448Q474 493 453 510T397 527H346V352ZM400 -16Q326 -16 262 12T149 89T74 204T46 345Q46 420 73 486T149 602T261 679T400 708Q474 708 538 680T651 602T726 487T754 345Q754 270 727 204T651 90T539 13T400 -16ZM400 670Q335 670 280 644T184 574T120 470T96 345Q96 280 119 221T184 118T280 48T400 22Q464 22 520 48T616 118T680 221T704 345Q704 411 681 470T617 573T521 644T400 670Z"  />
<glyph unicode="&#xAF;" horiz-adv-x="259" d="M261 607H-3V653H261V607Z"  />
<glyph unicode="&#xB0;" horiz-adv-x="400" d="M200 458Q246 458 274 488T302 565Q302 587 295 606T274 640T242 663T200 672Q177 672 159 664T127 641T106 607T98 565Q98 519 126 489T200 458ZM200 422Q170 422 144 433T99 463T69 509T58 565Q58 595 69 621T99 666T144 697T200 708Q230 708 256 697T301 667T331 621T342 565Q342 535 331 509T301 464T256 433T200 422Z"  />
<glyph unicode="&#xB1;" horiz-adv-x="600" d="M47 52H553V0H47V52ZM274 612H326V384H554V332H326V104H274V332H46V384H274V612Z"  />
<glyph unicode="&#xB2;" horiz-adv-x="342" d="M37 429V469Q93 513 130 551T189 622T220 685T229 741Q229 786 211 810T149 835Q127 835 115 827T97 802T87 762T77 708H59V829Q82 840 106 846T157 853Q214 853 250 822T287 738Q287 713 281 689T253 635T191 566T84 473H267V533H285V429H37Z"  />
<glyph unicode="&#xB3;" horiz-adv-x="342" d="M134 653Q157 653 172 658T205 678Q219 690 225 708T232 747Q232 764 229 780T218 808T197 827T161 835Q143 835 131 830T111 811T96 774T83 714H65V831Q87 840 110 846T159 853Q183 853 206 848T248 830T278 797T290 749Q290 707 266 682T208 644Q302 622 302 535Q302 511 292 490T264 454T219 429T160 419Q128 419 102 427T54 454V570H72Q81 529 89 503T107 463T129 443T162 437Q183 437 198 446T223 471T239 504T244 540Q244 568 235 586T211 615T176 630T134 635V653Z"  />
<glyph unicode="&#xB4;" horiz-adv-x="259" d="M57 569L175 697Q197 720 207 727T231 735Q245 735 253 727T261 706Q261 692 252 682T229 663L93 569H57Z"  />
<glyph unicode="&#xB5;" horiz-adv-x="500" d="M406 508V22H452V0H342V64Q335 52 324 38T298 12T262 -8T217 -16Q183 -16 158 -5V-174H48V-152H94V486H48V508H158V127Q158 61 180 38T236 14Q260 14 279 26T313 61T334 112T342 177V486H286V508H406Z"  />
<glyph unicode="&#xB6;" horiz-adv-x="600" d="M522 670Q499 669 484 664T460 647T446 615T442 565V-174H382V662H326V-174H266V272Q213 272 174 287T110 330T72 393T59 470Q59 515 72 555T113 626T181 674T278 692H522V670Z"  />
<glyph unicode="&#xB7;" horiz-adv-x="259" d="M81 254Q81 274 95 288T129 302Q149 302 163 288T177 254Q177 234 163 220T129 206Q109 206 95 220T81 254Z"  />
<glyph unicode="&#xB8;" horiz-adv-x="259" d="M20 -171Q47 -184 81 -184Q104 -184 123 -175T142 -138Q142 -117 128 -106T95 -94Q88 -94 80 -97T66 -105L48 -98L93 0H125L95 -66Q103 -64 113 -62T134 -60Q163 -60 184 -79T206 -128Q206 -153 195 -169T167 -195T128 -208T87 -212Q45 -212 6 -198L20 -171Z"  />
<glyph unicode="&#xB9;" horiz-adv-x="342" d="M66 752Q94 777 122 801T173 853H202V447H235V429H107V447H148V797L74 735L66 752Z"  />
<glyph unicode="&#xBA;" horiz-adv-x="278" d="M139 384Q109 384 86 398T48 436T24 488T16 546Q16 571 23 599T44 652T82 692T139 708Q169 708 192 694T230 657T254 605T262 546Q262 517 254 488T231 436T192 399T139 384ZM64 546Q64 516 68 490T82 443T106 412T139 400Q158 400 172 411T195 443T209 489T214 546Q214 576 210 602T196 649T172 680T139 692Q120 692 106 681T83 649T69 603T64 546Z"  />
<glyph unicode="&#xBB;" horiz-adv-x="426" d="M209 408Q212 408 215 405T226 395T247 375T281 343Q309 317 327 301T355 275T370 260T375 254Q375 252 371 248T356 234T327 207T281 165Q260 145 247 133T227 113T216 103T209 100Q200 100 199 109Q199 115 211 134T241 176T275 221T302 254Q293 265 276 287T241 332T212 374T199 399Q200 408 209 408ZM61 408Q64 408 67 405T78 395T99 375T133 343Q161 317 179 301T207 275T222 260T227 254Q227 252 223 248T208 234T179 207T133 165Q112 145 99 133T79 113T68 103T61 100Q52 100 51 109Q51 115 63 134T93 176T127 221T154 254Q145 265 128 287T93 332T64 374T51 399Q52 408 61 408Z"  />
<glyph unicode="&#xBC;" horiz-adv-x="770" d="M42 607Q70 632 98 656T149 708H178V302H211V284H83V302H124V652L50 590L42 607ZM578 708H626L173 -16H125L578 708ZM458 157L654 420H683V150H735V128H683V18H715V0H582V18H629V128H458V157ZM629 347L484 150H629V347Z"  />
<glyph unicode="&#xBD;" horiz-adv-x="770" d="M42 607Q70 632 98 656T149 708H178V302H211V284H83V302H124V652L50 590L42 607ZM568 708H616L163 -16H115L568 708ZM476 0V40Q532 84 569 122T628 193T659 256T668 312Q668 357 650 381T588 406Q566 406 554 398T536 373T526 333T516 279H498V400Q521 411 545 417T596 424Q653 424 689 393T726 309Q726 284 720 260T692 206T630 137T523 44H706V104H724V0H476Z"  />
<glyph unicode="&#xBE;" horiz-adv-x="770" d="M138 508Q161 508 176 513T209 533Q223 545 229 563T236 602Q236 619 233 635T222 663T201 682T165 690Q147 690 135 685T115 666T100 629T87 569H69V686Q91 695 114 701T163 708Q187 708 210 703T252 685T282 652T294 604Q294 562 270 537T212 499Q306 477 306 390Q306 366 296 345T268 309T223 284T164 274Q132 274 106 282T58 309V425H76Q85 384 93 358T111 318T133 298T166 292Q187 292 202 301T227 326T243 359T248 395Q248 423 239 441T215 470T180 485T138 490V508ZM622 708H670L217 -16H169L622 708ZM461 157L657 420H686V150H738V128H686V18H718V0H585V18H632V128H461V157ZM632 347L487 150H632V347Z"  />
<glyph unicode="&#xBF;" horiz-adv-x="389" d="M207 305Q207 275 205 256T195 218T174 178T139 122Q125 100 116 83T101 50T93 14T91 -30Q91 -66 100 -92T125 -135T159 -160T198 -168Q225 -168 242 -159T271 -126T294 -59T321 52H343V-144Q322 -156 304 -164T269 -178T233 -187T193 -190Q152 -190 120 -176T66 -136T31 -80T19 -13Q19 22 28 48T53 96T87 137T124 177Q146 202 158 216T177 243T184 268T185 305H207ZM242 484Q242 464 228 450T194 436Q174 436 160 450T146 484Q146 504 160 518T194 532Q214 532 228 518T242 484Z"  />
<glyph unicode="&#xC0;" horiz-adv-x="556" d="M0 0V22H47L255 700H291L501 22H544V0H370V22H432L355 274H153L76 22H153V0H0ZM160 296H349L254 604L160 296ZM179 847Q166 856 157 866T147 890Q147 902 155 910T177 919Q190 919 200 912T233 881L351 753H315L179 847Z"  />
<glyph unicode="&#xC1;" horiz-adv-x="556" d="M0 0V22H47L255 700H291L501 22H544V0H370V22H432L355 274H153L76 22H153V0H0ZM160 296H349L254 604L160 296ZM206 753L324 881Q346 904 356 911T380 919Q394 919 402 911T410 890Q410 876 401 866T378 847L242 753H206Z"  />
<glyph unicode="&#xC2;" horiz-adv-x="556" d="M0 0V22H47L255 700H291L501 22H544V0H370V22H432L355 274H153L76 22H153V0H0ZM160 296H349L254 604L160 296ZM304 919L414 753H384L278 865L172 753H142L252 919H304Z"  />
<glyph unicode="&#xC3;" horiz-adv-x="556" d="M0 0V22H47L255 700H291L501 22H544V0H370V22H432L355 274H153L76 22H153V0H0ZM160 296H349L254 604L160 296ZM134 777Q142 816 163 844T229 873Q242 873 257 866T288 850Q304 842 318 835T343 827Q368 827 379 842T399 879H422Q418 861 411 843T392 810T365 786T329 777Q315 777 299 784T266 801Q249 810 234 817T206 825Q185 825 174 810T157 777H134Z"  />
<glyph unicode="&#xC4;" horiz-adv-x="556" d="M0 0V22H47L255 700H291L501 22H544V0H370V22H432L355 274H153L76 22H153V0H0ZM160 296H349L254 604L160 296ZM146 817Q146 837 160 851T194 865Q214 865 228 851T242 817Q242 797 228 783T194 769Q174 769 160 783T146 817ZM314 817Q314 837 328 851T362 865Q382 865 396 851T410 817Q410 797 396 783T362 769Q342 769 328 783T314 817Z"  />
<glyph unicode="&#xC5;" horiz-adv-x="556" d="M0 0V22H47L255 700H291L501 22H544V0H370V22H432L355 274H153L76 22H153V0H0ZM160 296H349L254 604L160 296ZM180 847Q180 888 208 916T278 945Q319 945 347 917T376 847Q376 806 348 778T278 749Q237 749 209 777T180 847ZM210 847Q210 818 229 799T278 779Q307 779 326 798T346 847Q346 876 327 895T278 915Q249 915 230 896T210 847Z"  />
<glyph unicode="&#xC6;" horiz-adv-x="855" d="M192 296H392V670H388L192 296ZM392 274H178L46 22H124V0H-34V22H15L359 670H287V692H785V477H763Q748 534 739 571T722 631T704 661T677 670H464V372H545Q577 372 594 401T619 508H641V214H619Q611 292 594 321T545 350H464V22H669Q699 22 715 33T741 72T758 143T778 252H800V0H335V22H392V274Z"  />
<glyph unicode="&#xC7;" horiz-adv-x="556" d="M490 39Q477 28 457 19T415 1T369 -11T328 -16Q317 -16 313 -15L290 -66Q300 -64 309 -62T329 -60Q358 -60 379 -79T401 -128Q401 -153 390 -169T362 -195T323 -208T282 -212Q240 -212 201 -198L215 -171Q242 -184 276 -184Q299 -184 318 -175T337 -138Q337 -117 323 -106T290 -94Q283 -94 275 -97T261 -105L243 -98L282 -11Q229 -2 188 28T119 105T75 211T60 338Q60 414 81 481T140 599T232 679T348 708Q368 708 388 705T425 695T457 682T480 668V477H458Q442 538 432 578T410 643T384 676T342 686Q292 686 253 660T187 588T146 477T132 338Q132 253 147 191T190 87T252 26T326 6Q363 6 383 15T416 51T439 124T468 243H490V39Z"  />
<glyph unicode="&#xC8;" horiz-adv-x="578" d="M60 0V22H112V670H60V692H508V477H486Q471 534 462 571T445 631T427 661T400 670H184V372H268Q300 372 317 401T342 508H364V214H342Q334 292 317 321T268 350H184V22H392Q422 22 438 33T464 72T481 143T501 252H523V0H60ZM209 847Q196 856 187 866T177 890Q177 902 185 910T207 919Q220 919 230 912T263 881L381 753H345L209 847Z"  />
<glyph unicode="&#xC9;" horiz-adv-x="578" d="M60 0V22H112V670H60V692H508V477H486Q471 534 462 571T445 631T427 661T400 670H184V372H268Q300 372 317 401T342 508H364V214H342Q334 292 317 321T268 350H184V22H392Q422 22 438 33T464 72T481 143T501 252H523V0H60ZM236 753L354 881Q376 904 386 911T410 919Q424 919 432 911T440 890Q440 876 431 866T408 847L272 753H236Z"  />
<glyph unicode="&#xCA;" horiz-adv-x="578" d="M60 0V22H112V670H60V692H508V477H486Q471 534 462 571T445 631T427 661T400 670H184V372H268Q300 372 317 401T342 508H364V214H342Q334 292 317 321T268 350H184V22H392Q422 22 438 33T464 72T481 143T501 252H523V0H60ZM334 919L444 753H414L308 865L202 753H172L282 919H334Z"  />
<glyph unicode="&#xCB;" horiz-adv-x="578" d="M60 0V22H112V670H60V692H508V477H486Q471 534 462 571T445 631T427 661T400 670H184V372H268Q300 372 317 401T342 508H364V214H342Q334 292 317 321T268 350H184V22H392Q422 22 438 33T464 72T481 143T501 252H523V0H60ZM176 817Q176 837 190 851T224 865Q244 865 258 851T272 817Q272 797 258 783T224 769Q204 769 190 783T176 817ZM344 817Q344 837 358 851T392 865Q412 865 426 851T440 817Q440 797 426 783T392 769Q372 769 358 783T344 817Z"  />
<glyph unicode="&#xCC;" horiz-adv-x="296" d="M236 0H60V22H112V670H60V692H236V670H184V22H236V0ZM49 847Q36 856 27 866T17 890Q17 902 25 910T47 919Q60 919 70 912T103 881L221 753H185L49 847Z"  />
<glyph unicode="&#xCD;" horiz-adv-x="296" d="M236 0H60V22H112V670H60V692H236V670H184V22H236V0ZM76 753L194 881Q216 904 226 911T250 919Q264 919 272 911T280 890Q280 876 271 866T248 847L112 753H76Z"  />
<glyph unicode="&#xCE;" horiz-adv-x="296" d="M236 0H60V22H112V670H60V692H236V670H184V22H236V0ZM174 919L284 753H254L148 865L42 753H12L122 919H174Z"  />
<glyph unicode="&#xCF;" horiz-adv-x="296" d="M236 0H60V22H112V670H60V692H236V670H184V22H236V0ZM16 817Q16 837 30 851T64 865Q84 865 98 851T112 817Q112 797 98 783T64 769Q44 769 30 783T16 817ZM184 817Q184 837 198 851T232 865Q252 865 266 851T280 817Q280 797 266 783T232 769Q212 769 198 783T184 817Z"  />
<glyph unicode="&#xD0;" horiz-adv-x="630" d="M36 372H112V670H60V692H235Q311 692 372 673T478 613T546 505T570 346Q570 253 546 187T478 80T373 19T235 0H60V22H112V350H36V372ZM344 350H184V22H233Q372 22 435 102T498 346Q498 509 435 589T233 670H184V372H344V350Z"  />
<glyph unicode="&#xD1;" horiz-adv-x="611" d="M134 22H200V0H54V22H106V670H54V692H190L476 135V670H400V692H556V670H504V0H469L134 663V22ZM167 777Q175 816 196 844T262 873Q275 873 290 866T321 850Q337 842 351 835T376 827Q401 827 412 842T432 879H455Q451 861 444 843T425 810T398 786T362 777Q348 777 332 784T299 801Q282 810 267 817T239 825Q218 825 207 810T190 777H167Z"  />
<glyph unicode="&#xD2;" horiz-adv-x="630" d="M132 346Q132 178 177 92T315 6Q408 6 453 92T498 346Q498 514 453 600T315 686Q222 686 177 600T132 346ZM60 346Q60 430 78 497T130 611T211 683T315 708Q372 708 419 683T499 611T551 497T570 346Q570 262 552 195T500 81T419 9T315 -16Q258 -16 211 9T131 81T79 195T60 346ZM222 847Q209 856 200 866T190 890Q190 902 198 910T220 919Q233 919 243 912T276 881L394 753H358L222 847Z"  />
<glyph unicode="&#xD3;" horiz-adv-x="630" d="M132 346Q132 178 177 92T315 6Q408 6 453 92T498 346Q498 514 453 600T315 686Q222 686 177 600T132 346ZM60 346Q60 430 78 497T130 611T211 683T315 708Q372 708 419 683T499 611T551 497T570 346Q570 262 552 195T500 81T419 9T315 -16Q258 -16 211 9T131 81T79 195T60 346ZM249 753L367 881Q389 904 399 911T423 919Q437 919 445 911T453 890Q453 876 444 866T421 847L285 753H249Z"  />
<glyph unicode="&#xD4;" horiz-adv-x="630" d="M132 346Q132 178 177 92T315 6Q408 6 453 92T498 346Q498 514 453 600T315 686Q222 686 177 600T132 346ZM60 346Q60 430 78 497T130 611T211 683T315 708Q372 708 419 683T499 611T551 497T570 346Q570 262 552 195T500 81T419 9T315 -16Q258 -16 211 9T131 81T79 195T60 346ZM347 919L457 753H427L321 865L215 753H185L295 919H347Z"  />
<glyph unicode="&#xD5;" horiz-adv-x="630" d="M132 346Q132 178 177 92T315 6Q408 6 453 92T498 346Q498 514 453 600T315 686Q222 686 177 600T132 346ZM60 346Q60 430 78 497T130 611T211 683T315 708Q372 708 419 683T499 611T551 497T570 346Q570 262 552 195T500 81T419 9T315 -16Q258 -16 211 9T131 81T79 195T60 346ZM177 777Q185 816 206 844T272 873Q285 873 300 866T331 850Q347 842 361 835T386 827Q411 827 422 842T442 879H465Q461 861 454 843T435 810T408 786T372 777Q358 777 342 784T309 801Q292 810 277 817T249 825Q228 825 217 810T200 777H177Z"  />
<glyph unicode="&#xD6;" horiz-adv-x="630" d="M132 346Q132 178 177 92T315 6Q408 6 453 92T498 346Q498 514 453 600T315 686Q222 686 177 600T132 346ZM60 346Q60 430 78 497T130 611T211 683T315 708Q372 708 419 683T499 611T551 497T570 346Q570 262 552 195T500 81T419 9T315 -16Q258 -16 211 9T131 81T79 195T60 346ZM189 817Q189 837 203 851T237 865Q257 865 271 851T285 817Q285 797 271 783T237 769Q217 769 203 783T189 817ZM357 817Q357 837 371 851T405 865Q425 865 439 851T453 817Q453 797 439 783T405 769Q385 769 371 783T357 817Z"  />
<glyph unicode="&#xD7;" horiz-adv-x="600" d="M46 470L82 508L300 291L518 508L553 469L336 254L554 38L518 0L300 217L82 0L46 38L263 254L46 470Z"  />
<glyph unicode="&#xD8;" horiz-adv-x="630" d="M435 627Q391 686 315 686Q222 686 177 600T132 346Q132 267 142 206T174 101L435 627ZM194 67Q238 6 315 6Q408 6 453 92T498 346Q498 510 455 593L194 67ZM122 -79H85L152 56Q108 101 84 175T60 346Q60 430 78 497T130 611T211 683T315 708Q394 708 452 661L507 772H544L477 638Q521 592 545 518T570 346Q570 262 552 195T500 81T419 9T315 -16Q235 -16 177 33L122 -79Z"  />
<glyph unicode="&#xD9;" horiz-adv-x="611" d="M103 670H51V692H241V670H175V162Q175 132 182 105T206 58T249 26T314 14Q393 14 436 60T479 213V670H401V692H559V670H507V216Q507 99 458 42T301 -16Q259 -16 223 -5T161 28T119 85T103 164V670ZM212 847Q199 856 190 866T180 890Q180 902 188 910T210 919Q223 919 233 912T266 881L384 753H348L212 847Z"  />
<glyph unicode="&#xDA;" horiz-adv-x="611" d="M103 670H51V692H241V670H175V162Q175 132 182 105T206 58T249 26T314 14Q393 14 436 60T479 213V670H401V692H559V670H507V216Q507 99 458 42T301 -16Q259 -16 223 -5T161 28T119 85T103 164V670ZM239 753L357 881Q379 904 389 911T413 919Q427 919 435 911T443 890Q443 876 434 866T411 847L275 753H239Z"  />
<glyph unicode="&#xDB;" horiz-adv-x="611" d="M103 670H51V692H241V670H175V162Q175 132 182 105T206 58T249 26T314 14Q393 14 436 60T479 213V670H401V692H559V670H507V216Q507 99 458 42T301 -16Q259 -16 223 -5T161 28T119 85T103 164V670ZM337 919L447 753H417L311 865L205 753H175L285 919H337Z"  />
<glyph unicode="&#xDC;" horiz-adv-x="611" d="M103 670H51V692H241V670H175V162Q175 132 182 105T206 58T249 26T314 14Q393 14 436 60T479 213V670H401V692H559V670H507V216Q507 99 458 42T301 -16Q259 -16 223 -5T161 28T119 85T103 164V670ZM179 817Q179 837 193 851T227 865Q247 865 261 851T275 817Q275 797 261 783T227 769Q207 769 193 783T179 817ZM347 817Q347 837 361 851T395 865Q415 865 429 851T443 817Q443 797 429 783T395 769Q375 769 361 783T347 817Z"  />
<glyph unicode="&#xDD;" horiz-adv-x="500" d="M214 316L51 670H2V692H204V670H123L269 343L431 670H362V692H498V670H461L286 316V22H338V0H162V22H214V316ZM178 753L296 881Q318 904 328 911T352 919Q366 919 374 911T382 890Q382 876 373 866T350 847L214 753H178Z"  />
<glyph unicode="&#xDE;" horiz-adv-x="556" d="M60 0V22H112V670H60V692H236V670H184V534H300Q362 534 405 521T476 485T515 430T528 363Q528 316 514 283T468 228T387 196T268 186H184V22H256V0H60ZM184 208H279Q370 208 413 244T456 357Q456 428 417 470T290 512H184V208Z"  />
<glyph unicode="&#xDF;" horiz-adv-x="519" d="M104 22V517Q104 607 145 649T267 692Q303 692 332 681T382 650T414 605T426 552Q426 519 416 496T390 455T351 426T304 405Q385 386 424 331T464 194Q464 154 452 116T417 49T361 2T284 -16Q265 -16 242 -9T201 13L212 31Q228 19 247 13T282 6Q315 6 336 20T371 58T390 113T396 180Q396 228 390 266T366 332T317 376T234 394V416Q271 417 296 426T335 453T356 497T362 558Q362 581 356 601T338 637T309 661T267 670Q222 670 195 644T168 561V0H60V22H104Z"  />
<glyph unicode="&#xE0;" horiz-adv-x="481" d="M334 105Q317 50 279 17T181 -16Q152 -16 128 -7T85 20T57 62T46 116Q46 160 60 187T97 232T151 258T212 276T275 295T332 324V374Q332 401 327 424T309 465T277 492T228 502Q192 502 172 484T140 438T124 380T112 322H96V481Q115 494 150 509T226 524Q309 524 352 483T396 347V22H435V0H334V105ZM332 299Q298 274 259 261T185 234T129 196T106 128Q106 77 134 48T209 18Q239 18 261 33T300 76T324 141T332 224V299ZM141 663Q128 672 119 682T109 706Q109 718 117 726T139 735Q152 735 162 728T195 697L313 569H277L141 663Z"  />
<glyph unicode="&#xE1;" horiz-adv-x="481" d="M334 105Q317 50 279 17T181 -16Q152 -16 128 -7T85 20T57 62T46 116Q46 160 60 187T97 232T151 258T212 276T275 295T332 324V374Q332 401 327 424T309 465T277 492T228 502Q192 502 172 484T140 438T124 380T112 322H96V481Q115 494 150 509T226 524Q309 524 352 483T396 347V22H435V0H334V105ZM332 299Q298 274 259 261T185 234T129 196T106 128Q106 77 134 48T209 18Q239 18 261 33T300 76T324 141T332 224V299ZM168 569L286 697Q308 720 318 727T342 735Q356 735 364 727T372 706Q372 692 363 682T340 663L204 569H168Z"  />
<glyph unicode="&#xE2;" horiz-adv-x="481" d="M334 105Q317 50 279 17T181 -16Q152 -16 128 -7T85 20T57 62T46 116Q46 160 60 187T97 232T151 258T212 276T275 295T332 324V374Q332 401 327 424T309 465T277 492T228 502Q192 502 172 484T140 438T124 380T112 322H96V481Q115 494 150 509T226 524Q309 524 352 483T396 347V22H435V0H334V105ZM332 299Q298 274 259 261T185 234T129 196T106 128Q106 77 134 48T209 18Q239 18 261 33T300 76T324 141T332 224V299ZM266 735L376 569H346L240 681L134 569H104L214 735H266Z"  />
<glyph unicode="&#xE3;" horiz-adv-x="481" d="M334 105Q317 50 279 17T181 -16Q152 -16 128 -7T85 20T57 62T46 116Q46 160 60 187T97 232T151 258T212 276T275 295T332 324V374Q332 401 327 424T309 465T277 492T228 502Q192 502 172 484T140 438T124 380T112 322H96V481Q115 494 150 509T226 524Q309 524 352 483T396 347V22H435V0H334V105ZM332 299Q298 274 259 261T185 234T129 196T106 128Q106 77 134 48T209 18Q239 18 261 33T300 76T324 141T332 224V299ZM96 593Q104 632 125 660T191 689Q204 689 219 682T250 666Q266 658 280 651T305 643Q330 643 341 658T361 695H384Q380 677 373 659T354 626T327 602T291 593Q277 593 261 600T228 617Q211 626 196 633T168 641Q147 641 136 626T119 593H96Z"  />
<glyph unicode="&#xE4;" horiz-adv-x="481" d="M334 105Q317 50 279 17T181 -16Q152 -16 128 -7T85 20T57 62T46 116Q46 160 60 187T97 232T151 258T212 276T275 295T332 324V374Q332 401 327 424T309 465T277 492T228 502Q192 502 172 484T140 438T124 380T112 322H96V481Q115 494 150 509T226 524Q309 524 352 483T396 347V22H435V0H334V105ZM332 299Q298 274 259 261T185 234T129 196T106 128Q106 77 134 48T209 18Q239 18 261 33T300 76T324 141T332 224V299ZM108 633Q108 653 122 667T156 681Q176 681 190 667T204 633Q204 613 190 599T156 585Q136 585 122 599T108 633ZM276 633Q276 653 290 667T324 681Q344 681 358 667T372 633Q372 613 358 599T324 585Q304 585 290 599T276 633Z"  />
<glyph unicode="&#xE5;" horiz-adv-x="481" d="M334 105Q317 50 279 17T181 -16Q152 -16 128 -7T85 20T57 62T46 116Q46 160 60 187T97 232T151 258T212 276T275 295T332 324V374Q332 401 327 424T309 465T277 492T228 502Q192 502 172 484T140 438T124 380T112 322H96V481Q115 494 150 509T226 524Q309 524 352 483T396 347V22H435V0H334V105ZM332 299Q298 274 259 261T185 234T129 196T106 128Q106 77 134 48T209 18Q239 18 261 33T300 76T324 141T332 224V299ZM142 663Q142 704 170 732T240 761Q281 761 309 733T338 663Q338 622 310 594T240 565Q199 565 171 593T142 663ZM172 663Q172 634 191 615T240 595Q269 595 288 614T308 663Q308 692 289 711T240 731Q211 731 192 712T172 663Z"  />
<glyph unicode="&#xE6;" horiz-adv-x="751" d="M338 291Q314 277 288 268T235 251T186 234T145 212T117 178T106 128Q106 77 128 48T196 18Q230 18 256 33T301 76T328 141T338 224V291ZM407 298Q406 285 406 273T406 252Q406 130 441 68T534 6Q576 6 604 25T650 74Q665 99 671 129T680 192H702Q702 160 696 128T672 65Q652 30 618 7T529 -16Q492 -16 464 -5T414 27T379 74T355 131Q327 55 282 20T176 -16Q149 -16 126 -7T84 20T56 62T46 116Q46 156 60 182T97 224T151 251T214 270T279 289T338 316V374Q338 428 312 465T228 502Q192 502 172 484T140 438T124 380T112 322H96V481Q115 494 151 509T232 524Q280 524 323 506T388 441Q413 479 448 501T529 524Q562 524 592 513T644 477T679 416T692 327V298H407ZM624 320V332Q624 413 602 457T525 502Q493 502 471 484T436 438T416 378T409 320H624Z"  />
<glyph unicode="&#xE7;" horiz-adv-x="444" d="M364 311Q350 365 341 401T320 460T295 492T258 502Q225 502 199 484T155 434T128 357T118 256Q118 204 124 160T146 83T185 33T245 14Q284 14 310 33T350 79Q361 101 366 126T372 179H394Q394 149 389 121T371 68Q353 31 319 8T239 -16L217 -66Q227 -64 236 -62T256 -60Q285 -60 306 -79T328 -128Q328 -153 317 -169T289 -195T250 -208T209 -212Q167 -212 128 -198L142 -171Q169 -184 203 -184Q226 -184 245 -175T264 -138Q264 -117 250 -106T217 -94Q210 -94 202 -97T188 -105L170 -98L209 -13Q172 -7 143 15T93 72T61 153T50 255Q50 316 67 366T113 451T180 505T260 524Q294 524 324 515T380 494V311H364Z"  />
<glyph unicode="&#xE8;" horiz-adv-x="463" d="M120 298Q119 285 119 273T119 252Q119 130 153 68T246 6Q288 6 316 25T362 74Q377 99 383 129T392 192H414Q414 160 408 128T384 65Q364 30 330 7T241 -16Q185 -16 149 8T90 72T59 159T50 254Q50 308 63 356T100 442T160 502T241 524Q274 524 304 513T356 477T391 416T404 327V298H120ZM336 320V332Q336 413 314 457T237 502Q205 502 183 484T148 438T128 378T122 320H336ZM144 663Q131 672 122 682T112 706Q112 718 120 726T142 735Q155 735 165 728T198 697L316 569H280L144 663Z"  />
<glyph unicode="&#xE9;" horiz-adv-x="463" d="M120 298Q119 285 119 273T119 252Q119 130 153 68T246 6Q288 6 316 25T362 74Q377 99 383 129T392 192H414Q414 160 408 128T384 65Q364 30 330 7T241 -16Q185 -16 149 8T90 72T59 159T50 254Q50 308 63 356T100 442T160 502T241 524Q274 524 304 513T356 477T391 416T404 327V298H120ZM336 320V332Q336 413 314 457T237 502Q205 502 183 484T148 438T128 378T122 320H336ZM171 569L289 697Q311 720 321 727T345 735Q359 735 367 727T375 706Q375 692 366 682T343 663L207 569H171Z"  />
<glyph unicode="&#xEA;" horiz-adv-x="463" d="M120 298Q119 285 119 273T119 252Q119 130 153 68T246 6Q288 6 316 25T362 74Q377 99 383 129T392 192H414Q414 160 408 128T384 65Q364 30 330 7T241 -16Q185 -16 149 8T90 72T59 159T50 254Q50 308 63 356T100 442T160 502T241 524Q274 524 304 513T356 477T391 416T404 327V298H120ZM336 320V332Q336 413 314 457T237 502Q205 502 183 484T148 438T128 378T122 320H336ZM269 735L379 569H349L243 681L137 569H107L217 735H269Z"  />
<glyph unicode="&#xEB;" horiz-adv-x="463" d="M120 298Q119 285 119 273T119 252Q119 130 153 68T246 6Q288 6 316 25T362 74Q377 99 383 129T392 192H414Q414 160 408 128T384 65Q364 30 330 7T241 -16Q185 -16 149 8T90 72T59 159T50 254Q50 308 63 356T100 442T160 502T241 524Q274 524 304 513T356 477T391 416T404 327V298H120ZM336 320V332Q336 413 314 457T237 502Q205 502 183 484T148 438T128 378T122 320H336ZM111 633Q111 653 125 667T159 681Q179 681 193 667T207 633Q207 613 193 599T159 585Q139 585 125 599T111 633ZM279 633Q279 653 293 667T327 681Q347 681 361 667T375 633Q375 613 361 599T327 585Q307 585 293 599T279 633Z"  />
<glyph unicode="&#xEC;" horiz-adv-x="247" d="M94 486H48V508H158V22H206V0H48V22H94V486ZM30 663Q17 672 8 682T-2 706Q-2 718 6 726T28 735Q41 735 51 728T84 697L202 569H166L30 663Z"  />
<glyph unicode="&#xED;" horiz-adv-x="247" d="M94 486H48V508H158V22H206V0H48V22H94V486ZM48 569L166 697Q188 720 198 727T222 735Q236 735 244 727T252 706Q252 692 243 682T220 663L84 569H48Z"  />
<glyph unicode="&#xEE;" horiz-adv-x="247" d="M94 486H48V508H158V22H206V0H48V22H94V486ZM149 735L259 569H229L123 681L17 569H-13L97 735H149Z"  />
<glyph unicode="&#xEF;" horiz-adv-x="247" d="M94 486H48V508H158V22H206V0H48V22H94V486ZM-3 633Q-3 653 11 667T45 681Q65 681 79 667T93 633Q93 613 79 599T45 585Q25 585 11 599T-3 633ZM165 633Q165 653 179 667T213 681Q233 681 247 667T261 633Q261 613 247 599T213 585Q193 585 179 599T165 633Z"  />
<glyph unicode="&#xF0;" horiz-adv-x="478" d="M247 610Q230 633 210 651T168 686L184 708Q244 676 284 634L398 708L416 682L306 610Q371 537 399 445T428 254Q428 200 416 151T380 65T321 6T239 -16Q191 -16 156 5T97 62T62 142T50 234Q50 285 61 332T96 415T155 472T239 494Q263 494 284 487T324 467Q314 499 299 528T266 584L158 515L142 542L247 610ZM239 6Q272 6 295 23T332 71T353 147T360 244Q360 293 354 335T333 407T295 455T239 472Q206 472 183 455T146 408T125 335T118 244Q118 191 124 147T145 72T183 23T239 6Z"  />
<glyph unicode="&#xF1;" horiz-adv-x="500" d="M48 0V22H94V486H48V508H158V447Q175 479 203 501T273 524Q342 524 374 484T406 374V22H452V0H290V22H342V392Q342 446 321 470T262 494Q240 494 221 481T188 448T166 401T158 347V22H214V0H48ZM106 593Q114 632 135 660T201 689Q214 689 229 682T260 666Q276 658 290 651T315 643Q340 643 351 658T371 695H394Q390 677 383 659T364 626T337 602T301 593Q287 593 271 600T238 617Q221 626 206 633T178 641Q157 641 146 626T129 593H106Z"  />
<glyph unicode="&#xF2;" horiz-adv-x="478" d="M239 524Q289 524 325 501T384 441T417 354T428 254Q428 203 418 154T384 68T325 7T239 -16Q189 -16 153 7T94 67T61 154T50 254Q50 305 60 354T94 440T153 501T239 524ZM239 502Q204 502 181 484T143 433T124 355T118 254Q118 199 123 154T143 75T180 24T239 6Q274 6 297 24T335 75T354 153T360 254Q360 309 355 354T335 433T298 484T239 502ZM140 663Q127 672 118 682T108 706Q108 718 116 726T138 735Q151 735 161 728T194 697L312 569H276L140 663Z"  />
<glyph unicode="&#xF3;" horiz-adv-x="478" d="M239 524Q289 524 325 501T384 441T417 354T428 254Q428 203 418 154T384 68T325 7T239 -16Q189 -16 153 7T94 67T61 154T50 254Q50 305 60 354T94 440T153 501T239 524ZM239 502Q204 502 181 484T143 433T124 355T118 254Q118 199 123 154T143 75T180 24T239 6Q274 6 297 24T335 75T354 153T360 254Q360 309 355 354T335 433T298 484T239 502ZM167 569L285 697Q307 720 317 727T341 735Q355 735 363 727T371 706Q371 692 362 682T339 663L203 569H167Z"  />
<glyph unicode="&#xF4;" horiz-adv-x="478" d="M239 524Q289 524 325 501T384 441T417 354T428 254Q428 203 418 154T384 68T325 7T239 -16Q189 -16 153 7T94 67T61 154T50 254Q50 305 60 354T94 440T153 501T239 524ZM239 502Q204 502 181 484T143 433T124 355T118 254Q118 199 123 154T143 75T180 24T239 6Q274 6 297 24T335 75T354 153T360 254Q360 309 355 354T335 433T298 484T239 502ZM265 735L375 569H345L239 681L133 569H103L213 735H265Z"  />
<glyph unicode="&#xF5;" horiz-adv-x="478" d="M239 524Q289 524 325 501T384 441T417 354T428 254Q428 203 418 154T384 68T325 7T239 -16Q189 -16 153 7T94 67T61 154T50 254Q50 305 60 354T94 440T153 501T239 524ZM239 502Q204 502 181 484T143 433T124 355T118 254Q118 199 123 154T143 75T180 24T239 6Q274 6 297 24T335 75T354 153T360 254Q360 309 355 354T335 433T298 484T239 502ZM95 593Q103 632 124 660T190 689Q203 689 218 682T249 666Q265 658 279 651T304 643Q329 643 340 658T360 695H383Q379 677 372 659T353 626T326 602T290 593Q276 593 260 600T227 617Q210 626 195 633T167 641Q146 641 135 626T118 593H95Z"  />
<glyph unicode="&#xF6;" horiz-adv-x="478" d="M239 524Q289 524 325 501T384 441T417 354T428 254Q428 203 418 154T384 68T325 7T239 -16Q189 -16 153 7T94 67T61 154T50 254Q50 305 60 354T94 440T153 501T239 524ZM239 502Q204 502 181 484T143 433T124 355T118 254Q118 199 123 154T143 75T180 24T239 6Q274 6 297 24T335 75T354 153T360 254Q360 309 355 354T335 433T298 484T239 502ZM107 633Q107 653 121 667T155 681Q175 681 189 667T203 633Q203 613 189 599T155 585Q135 585 121 599T107 633ZM275 633Q275 653 289 667T323 681Q343 681 357 667T371 633Q371 613 357 599T323 585Q303 585 289 599T275 633Z"  />
<glyph unicode="&#xF7;" horiz-adv-x="600" d="M46 228V280H554V228H46ZM244 456Q244 479 260 495T300 512Q323 512 339 496T356 456Q356 433 340 417T300 400Q277 400 261 416T244 456ZM244 52Q244 75 260 91T300 108Q323 108 339 92T356 52Q356 29 340 13T300 -4Q277 -4 261 12T244 52Z"  />
<glyph unicode="&#xF8;" horiz-adv-x="478" d="M308 473Q284 502 239 502Q204 502 181 484T143 433T124 355T118 254Q118 193 125 144T150 63L308 473ZM170 35Q196 6 239 6Q274 6 297 24T335 75T354 153T360 254Q360 314 353 362T329 444L170 35ZM345 487Q389 450 408 387T428 254Q428 203 418 154T384 68T325 7T239 -16Q194 -16 158 5L120 -94H89L134 21Q112 39 97 64T71 119T55 184T50 254Q50 305 60 354T94 440T153 501T239 524Q285 524 320 504L358 602H389L345 487Z"  />
<glyph unicode="&#xF9;" horiz-adv-x="500" d="M406 508V22H452V0H342V64Q336 52 325 38T298 12T262 -8T217 -16Q155 -16 125 20T94 135V486H48V508H158V127Q158 61 180 38T236 14Q260 14 279 26T313 61T334 112T342 177V486H286V508H406ZM151 663Q138 672 129 682T119 706Q119 718 127 726T149 735Q162 735 172 728T205 697L323 569H287L151 663Z"  />
<glyph unicode="&#xFA;" horiz-adv-x="500" d="M406 508V22H452V0H342V64Q336 52 325 38T298 12T262 -8T217 -16Q155 -16 125 20T94 135V486H48V508H158V127Q158 61 180 38T236 14Q260 14 279 26T313 61T334 112T342 177V486H286V508H406ZM178 569L296 697Q318 720 328 727T352 735Q366 735 374 727T382 706Q382 692 373 682T350 663L214 569H178Z"  />
<glyph unicode="&#xFB;" horiz-adv-x="500" d="M406 508V22H452V0H342V64Q336 52 325 38T298 12T262 -8T217 -16Q155 -16 125 20T94 135V486H48V508H158V127Q158 61 180 38T236 14Q260 14 279 26T313 61T334 112T342 177V486H286V508H406ZM276 735L386 569H356L250 681L144 569H114L224 735H276Z"  />
<glyph unicode="&#xFC;" horiz-adv-x="500" d="M406 508V22H452V0H342V64Q336 52 325 38T298 12T262 -8T217 -16Q155 -16 125 20T94 135V486H48V508H158V127Q158 61 180 38T236 14Q260 14 279 26T313 61T334 112T342 177V486H286V508H406ZM118 633Q118 653 132 667T166 681Q186 681 200 667T214 633Q214 613 200 599T166 585Q146 585 132 599T118 633ZM286 633Q286 653 300 667T334 681Q354 681 368 667T382 633Q382 613 368 599T334 585Q314 585 300 599T286 633Z"  />
<glyph unicode="&#xFD;" horiz-adv-x="444" d="M177 508V486H112L262 102L379 486H314V508H432V486H408L244 -51Q234 -83 223 -106T198 -144T165 -166T120 -174Q100 -174 83 -168T51 -150V0H67Q73 -22 79 -47T93 -93T111 -129T135 -144Q155 -144 169 -134T193 -105T213 -59T233 5L46 486H11V508H177ZM166 569L284 697Q306 720 316 727T340 735Q354 735 362 727T370 706Q370 692 361 682T338 663L202 569H166Z"  />
<glyph unicode="&#xFE;" horiz-adv-x="497" d="M48 -174V-152H90V670H48V692H154V426Q164 468 195 496T269 524Q310 524 343 503T399 445T434 360T447 258Q447 193 431 143T390 57T332 3T265 -16Q219 -16 193 10T154 72V-152H194V-174H48ZM379 254Q379 323 370 370T345 447T309 489T267 502Q245 502 225 491T189 452T164 375T154 254Q154 135 179 71T266 6Q290 6 311 18T347 60T370 137T379 254Z"  />
<glyph unicode="&#xFF;" horiz-adv-x="444" d="M177 508V486H112L262 102L379 486H314V508H432V486H408L244 -51Q234 -83 223 -106T198 -144T165 -166T120 -174Q100 -174 83 -168T51 -150V0H67Q73 -22 79 -47T93 -93T111 -129T135 -144Q155 -144 169 -134T193 -105T213 -59T233 5L46 486H11V508H177ZM103 633Q103 653 117 667T151 681Q171 681 185 667T199 633Q199 613 185 599T151 585Q131 585 117 599T103 633ZM271 633Q271 653 285 667T319 681Q339 681 353 667T367 633Q367 613 353 599T319 585Q299 585 285 599T271 633Z"  />
<glyph unicode="&#x131;" horiz-adv-x="247" d="M94 486H48V508H158V22H206V0H48V22H94V486Z"  />
<glyph unicode="&#x152;" horiz-adv-x="929" d="M463 0V32Q434 10 396 -3T318 -16Q259 -16 212 9T130 81T78 195T60 346Q60 430 80 497T137 611T222 683T328 708Q378 708 412 692T463 660V692H859V477H837Q822 534 813 571T796 631T778 661T751 670H535V372H619Q651 372 668 401T693 508H715V214H693Q685 292 668 321T619 350H535V22H743Q773 22 789 33T815 72T832 143T852 252H874V0H463ZM463 632Q437 656 404 671T328 686Q288 686 253 665T190 602T148 495T132 346Q132 260 145 197T183 91T242 27T318 6Q363 6 401 22T463 58V632Z"  />
<glyph unicode="&#x153;" horiz-adv-x="773" d="M239 502Q204 502 181 484T143 433T124 355T118 254Q118 199 123 154T143 75T180 24T239 6Q274 6 297 24T335 75T354 153T360 254Q360 309 355 354T335 433T298 484T239 502ZM429 298Q428 285 428 273T428 252Q428 130 463 68T556 6Q598 6 626 25T672 74Q687 99 693 129T702 192H724Q724 160 718 128T694 65Q674 30 640 7T551 -16Q491 -16 453 12T393 86Q370 40 333 12T239 -16Q189 -16 153 7T94 67T61 154T50 254Q50 305 60 354T94 440T153 501T239 524Q296 524 334 495T396 417Q420 466 459 495T551 524Q584 524 614 513T666 477T701 416T714 327V298H429ZM646 320V332Q646 413 624 457T547 502Q515 502 493 484T458 438T438 378T431 320H646Z"  />
<glyph unicode="&#x160;" horiz-adv-x="519" d="M403 476L371 593Q363 620 354 638T332 666T300 681T256 686Q194 686 154 652T113 552Q113 525 120 506T145 471T193 439T268 402Q326 374 363 353T421 308T451 257T459 189Q459 147 444 110T400 45T329 1T233 -16Q188 -16 145 -2T67 45V257H89Q107 191 118 144T143 66T177 21T234 6Q271 6 301 19T354 55T387 111T399 181Q399 214 391 235T363 274T312 306T237 343Q194 363 161 381T106 420T71 467T59 528Q59 559 69 591T102 649T164 691T260 708Q313 708 352 697T425 668V476H403ZM217 753L107 919H137L243 807L349 919H379L269 753H217Z"  />
<glyph unicode="&#x161;" horiz-adv-x="406" d="M318 338L288 443Q283 460 278 471T263 489T239 499T204 502Q177 502 158 494T126 474T107 447T100 416Q100 390 119 371T168 335T231 301T294 262T342 212T362 146Q362 104 348 74T309 23T254 -6T189 -16Q156 -16 121 -3T62 34V200H78Q88 138 97 100T119 41T151 13T199 6Q222 6 243 13T281 35T306 71T316 118Q316 149 297 171T248 212T185 247T122 285T74 331T54 395Q54 416 62 439T89 480T138 511T214 524Q247 524 276 516T334 496V338H318ZM177 569L67 735H97L203 623L309 735H339L229 569H177Z"  />
<glyph unicode="&#x178;" horiz-adv-x="500" d="M214 316L51 670H2V692H204V670H123L269 343L431 670H362V692H498V670H461L286 316V22H338V0H162V22H214V316ZM134 817Q134 837 148 851T182 865Q202 865 216 851T230 817Q230 797 216 783T182 769Q162 769 148 783T134 817ZM302 817Q302 837 316 851T350 865Q370 865 384 851T398 817Q398 797 384 783T350 769Q330 769 316 783T302 817Z"  />
<glyph unicode="&#x17D;" horiz-adv-x="500" d="M118 22H339Q360 22 371 31T391 66T409 137T436 252H458V0H39L380 670H184Q161 670 148 661T125 630T107 570T86 478H64V692H461L118 22ZM224 753L114 919H144L250 807L356 919H386L276 753H224Z"  />
<glyph unicode="&#x17E;" horiz-adv-x="389" d="M60 340V508H365L106 22H256Q275 22 288 31T310 62T326 118T340 201H356V0H32L287 486H161Q138 486 124 476T101 446T87 400T76 340H60ZM181 569L71 735H101L207 623L313 735H343L233 569H181Z"  />
<glyph unicode="&#x192;" horiz-adv-x="519" d="M12 -38H36Q35 -43 35 -51T34 -69Q34 -121 42 -142T73 -164Q105 -164 128 -129T172 -3L263 394H164L169 416H267Q280 482 295 536T331 628T376 687T433 708Q456 708 477 700T517 680L490 555H474Q470 589 468 613T461 653T451 675T432 682Q414 682 400 665T374 613T350 530T324 416H434L428 394H321L241 38Q226 -29 206 -73T162 -143T113 -179T63 -190Q40 -190 21 -184T-15 -168L12 -38Z"  />
<glyph unicode="&#x2C6;" horiz-adv-x="259" d="M155 735L265 569H235L129 681L23 569H-7L103 735H155Z"  />
<glyph unicode="&#x2C7;" horiz-adv-x="259" d="M103 569L-7 735H23L129 623L235 735H265L155 569H103Z"  />
<glyph unicode="&#x2DA;" horiz-adv-x="259" d="M31 663Q31 704 59 732T129 761Q170 761 198 733T227 663Q227 622 199 594T129 565Q88 565 60 593T31 663ZM61 663Q61 634 80 615T129 595Q158 595 177 614T197 663Q197 692 178 711T129 731Q100 731 81 712T61 663Z"  />
<glyph unicode="&#x2DC;" horiz-adv-x="259" d="M-15 593Q-7 632 14 660T80 689Q93 689 108 682T139 666Q155 658 169 651T194 643Q219 643 230 658T250 695H273Q269 677 262 659T243 626T216 602T180 593Q166 593 150 600T117 617Q100 626 85 633T57 641Q36 641 25 626T8 593H-15Z"  />
<glyph unicode="&#x2013;" horiz-adv-x="500" d="M0 276H500V232H0V276Z"  />
<glyph unicode="&#x2014;" horiz-adv-x="1000" d="M0 276H1000V232H0V276Z"  />
<glyph unicode="&#x2018;" horiz-adv-x="222" d="M144 702Q104 674 101 640Q120 640 139 630T159 594Q159 574 148 559T113 544Q90 544 77 562T63 604Q63 638 81 667T131 718L144 702Z"  />
<glyph unicode="&#x2019;" horiz-adv-x="222" d="M78 550Q118 578 121 612Q102 612 83 622T63 658Q63 678 74 693T109 708Q132 708 145 690T159 648Q159 614 141 585T91 534L78 550Z"  />
<glyph unicode="&#x201A;" horiz-adv-x="222" d="M78 -76Q118 -48 121 -14Q102 -14 83 -4T63 32Q63 52 74 67T109 82Q132 82 145 64T159 22Q159 -12 141 -41T91 -92L78 -76Z"  />
<glyph unicode="&#x201C;" horiz-adv-x="370" d="M144 702Q104 674 101 640Q120 640 139 630T159 594Q159 574 148 559T113 544Q90 544 77 562T63 604Q63 638 81 667T131 718L144 702ZM292 702Q252 674 249 640Q268 640 287 630T307 594Q307 574 296 559T261 544Q238 544 225 562T211 604Q211 638 229 667T279 718L292 702Z"  />
<glyph unicode="&#x201D;" horiz-adv-x="370" d="M78 550Q118 578 121 612Q102 612 83 622T63 658Q63 678 74 693T109 708Q132 708 145 690T159 648Q159 614 141 585T91 534L78 550ZM226 550Q266 578 269 612Q250 612 231 622T211 658Q211 678 222 693T257 708Q280 708 293 690T307 648Q307 614 289 585T239 534L226 550Z"  />
<glyph unicode="&#x201E;" horiz-adv-x="370" d="M78 -76Q118 -48 121 -14Q102 -14 83 -4T63 32Q63 52 74 67T109 82Q132 82 145 64T159 22Q159 -12 141 -41T91 -92L78 -76ZM226 -76Q266 -48 269 -14Q250 -14 231 -4T211 32Q211 52 222 67T257 82Q280 82 293 64T307 22Q307 -12 289 -41T239 -92L226 -76Z"  />
<glyph unicode="&#x2020;" horiz-adv-x="519" d="M187 -174V-152H227V405H103V353H81V505H103V453H227V670H187V692H331V670H291V453H415V505H437V353H415V405H291V-152H331V-174H187Z"  />
<glyph unicode="&#x2021;" horiz-adv-x="519" d="M331 692V670H291V453H415V505H437V353H415V405H291V113H415V165H437V13H415V65H291V-152H331V-174H187V-152H227V65H103V13H81V165H103V113H227V405H103V353H81V505H103V453H227V670H187V692H331Z"  />
<glyph unicode="&#x2022;" horiz-adv-x="500" d="M423 346Q423 310 410 279T373 224T318 187T250 173Q214 173 183 186T128 223T91 278T77 346Q77 382 90 413T127 468T182 505T250 519Q286 519 317 506T372 469T409 414T423 346Z"  />
<glyph unicode="&#x2026;" horiz-adv-x="1000" d="M119 34Q119 54 133 68T167 82Q187 82 201 68T215 34Q215 14 201 0T167 -14Q147 -14 133 0T119 34ZM452 34Q452 54 466 68T500 82Q520 82 534 68T548 34Q548 14 534 0T500 -14Q480 -14 466 0T452 34ZM785 34Q785 54 799 68T833 82Q853 82 867 68T881 34Q881 14 867 0T833 -14Q813 -14 799 0T785 34Z"  />
<glyph unicode="&#x2030;" horiz-adv-x="1000" d="M169 686Q127 686 110 637T92 490Q92 392 109 343T169 294Q211 294 228 343T246 490Q246 588 229 637T169 686ZM140 -16L510 708H544L174 -16H140ZM520 398Q478 398 461 349T443 202Q443 104 460 55T520 6Q562 6 579 55T597 202Q597 300 580 349T520 398ZM169 708Q227 708 262 653T298 490Q298 383 263 328T169 272Q111 272 76 327T40 490Q40 597 75 652T169 708ZM520 420Q578 420 613 365T649 202Q649 95 614 40T520 -16Q462 -16 427 39T391 202Q391 309 426 364T520 420ZM831 420Q889 420 924 365T960 202Q960 95 925 40T831 -16Q773 -16 738 39T702 202Q702 309 737 364T831 420ZM831 398Q789 398 772 349T754 202Q754 104 771 55T831 6Q873 6 890 55T908 202Q908 300 891 349T831 398Z"  />
<glyph unicode="&#x2039;" horiz-adv-x="278" d="M217 100Q214 100 210 103T199 113T179 132T145 165Q117 190 99 207T71 233T56 247T51 254Q51 255 55 260T70 274T99 300T145 343Q166 362 178 375T198 395T210 405T217 408Q226 408 227 399Q227 393 215 374T185 332T151 287T124 254Q133 243 150 221T185 176T214 134T227 109Q226 100 217 100Z"  />
<glyph unicode="&#x203A;" horiz-adv-x="278" d="M61 408Q64 408 67 405T78 395T99 375T133 343Q161 317 179 301T207 275T222 260T227 254Q227 252 223 248T208 234T179 207T133 165Q112 145 99 133T79 113T68 103T61 100Q52 100 51 109Q51 115 63 134T93 176T127 221T154 254Q145 265 128 287T93 332T64 374T51 399Q52 408 61 408Z"  />
<glyph unicode="&#x20AC;" horiz-adv-x="519" d="M153 302Q156 227 170 171T208 79T262 24T326 6Q352 6 370 14T402 46T428 115T458 233H480V39Q467 28 448 19T408 1T365 -11T328 -16Q272 -16 228 8T152 75T103 176T81 302H13V324H80V338Q80 355 81 372T84 406H13V428H87Q97 488 120 539T176 627T253 686T348 708Q366 708 384 704T419 694T449 681T470 668V487H448Q435 543 425 581T403 642T377 676T342 686Q302 686 271 667T216 613T178 531T157 428H356V406H155Q152 365 152 324H356V302H153Z"  />
<glyph unicode="&#x2122;" horiz-adv-x="990" d="M240 362Q240 344 241 334T248 319T262 313T289 310V288H127V310Q145 311 154 313T169 320T175 335T176 362V670H119Q87 670 73 651T51 604H35V692H380V604H364Q357 632 343 651T297 670H240V362ZM519 594V373Q519 340 528 327T572 310V288H441V310Q474 313 483 326T493 373V616Q493 627 487 637T470 654T447 666T424 670V692H537L697 371L859 692H962V670Q929 668 917 657T904 617V362Q904 345 905 335T910 320T925 313T956 310V288H790V310Q808 312 818 314T833 321T839 335T840 362V596L681 286H670L519 594Z"  />

</font>
</defs>
</svg>
